<?xml version="1.0" standalone="no"?>
<!DOCTYPE svg PUBLIC "-//W3C//DTD SVG 20010904//EN"
 "http://www.w3.org/TR/2001/REC-SVG-20010904/DTD/svg10.dtd">
<svg version="1.0" xmlns="http://www.w3.org/2000/svg"
 width="700.000000pt" height="700.000000pt" viewBox="0 0 700.000000 700.000000"
 preserveAspectRatio="xMidYMid meet">
<metadata>
Created by potrace 1.14, written by Peter Selinger 2001-2017
</metadata>
<g transform="translate(0.000000,700.000000) scale(0.100000,-0.100000)"
fill="#000000" stroke="none">
<path d="M3043 5460 c-17 -4 -100 -41 -185 -83 -172 -85 -327 -157 -336 -157
-4 0 -40 -14 -81 -30 -41 -17 -82 -32 -90 -34 -9 -2 -23 -6 -31 -9 -16 -6 -57
-18 -150 -43 -30 -8 -113 -33 -185 -56 -195 -62 -198 -66 -211 -303 -3 -55 -7
-120 -9 -145 -2 -25 -7 -83 -10 -130 -3 -47 -7 -101 -10 -120 -2 -19 -7 -64
-10 -100 -4 -36 -8 -76 -10 -90 -2 -14 -6 -54 -10 -90 -4 -36 -8 -76 -10 -90
-2 -14 -9 -63 -15 -110 -16 -120 -18 -139 -25 -195 -7 -59 -10 -62 -32 -44
-44 37 -90 52 -141 47 -29 -3 -52 -5 -52 -4 41 180 48 240 48 421 1 210 -11
289 -63 399 -28 60 -117 166 -141 166 -7 0 -14 5 -16 10 -6 18 -146 61 -210
63 -91 5 -190 -23 -313 -85 -77 -40 -286 -183 -395 -271 -8 -7 -49 -36 -91
-65 -42 -29 -85 -62 -97 -75 -23 -25 -36 -75 -23 -91 15 -18 16 -50 2 -75 -16
-30 -15 -37 59 -321 11 -42 77 -335 84 -370 2 -14 9 -45 15 -70 5 -25 19 -88
31 -140 11 -52 22 -104 25 -115 9 -38 27 -120 72 -325 25 -113 46 -212 48
-220 2 -8 10 -46 19 -85 8 -38 31 -142 51 -230 20 -88 39 -169 41 -180 2 -11
15 -72 29 -135 33 -146 41 -155 140 -145 74 7 112 25 255 124 179 123 302 224
410 334 41 41 70 62 57 40 -3 -5 -8 -35 -11 -68 -4 -33 -9 -78 -11 -100 -12
-102 -16 -157 -21 -240 -3 -49 -6 -106 -8 -125 -3 -40 21 -89 44 -91 37 -4 54
1 161 41 63 23 157 58 209 77 91 33 113 42 163 62 12 6 81 31 152 57 72 25
145 58 164 72 33 24 33 25 29 93 -2 38 0 69 5 69 8 0 6 29 -8 155 -3 29 1 32
81 70 73 35 84 38 85 23 1 -10 2 -21 3 -25 1 -5 6 -46 11 -93 5 -47 9 -87 10
-90 1 -3 5 -43 10 -90 5 -47 10 -88 11 -92 1 -5 2 -14 3 -21 2 -20 39 -56 65
-63 22 -5 61 9 231 81 17 7 158 67 315 134 157 67 300 130 318 141 32 20 32
20 31 97 0 43 0 92 1 108 2 17 -12 89 -29 160 -18 72 -34 146 -37 165 -3 19
-8 38 -10 41 -4 7 -74 337 -74 349 0 4 25 7 55 7 45 -1 60 4 81 24 14 13 66
103 116 199 49 96 87 167 84 157 -64 -216 -94 -355 -85 -397 5 -19 6 -44 2
-54 -10 -34 -11 -91 -1 -109 5 -10 25 -25 44 -33 43 -18 177 -21 225 -5 36 12
56 39 163 231 20 36 41 72 46 80 26 40 180 312 180 316 0 3 10 18 21 32 20 25
21 25 15 5 -13 -47 -15 -59 -20 -88 -3 -16 -15 -73 -26 -125 -11 -52 -25 -118
-32 -147 -6 -29 -7 -64 -3 -80 5 -15 7 -32 6 -38 -2 -5 -5 -21 -7 -35 -3 -14
-6 -30 -8 -36 -8 -21 24 -74 49 -84 15 -6 82 -10 149 -10 l124 0 -70 -222
c-39 -123 -74 -236 -78 -253 -4 -16 -17 -57 -29 -89 -22 -62 -27 -121 -12
-130 5 -4 3 -28 -5 -58 -12 -47 -12 -56 4 -85 9 -17 120 -117 246 -222 239
-200 263 -213 299 -173 19 21 24 48 32 202 18 318 57 484 225 943 35 95 30 91
122 87 141 -6 328 94 542 290 27 25 54 50 60 55 7 6 32 28 56 50 l43 40 -28
-50 c-60 -107 -144 -233 -192 -288 -36 -41 -45 -97 -20 -131 11 -15 11 -23 -2
-50 -13 -26 -27 -36 -74 -51 -78 -25 -175 -90 -211 -143 -25 -35 -30 -51 -28
-95 3 -86 3 -100 -1 -142 -13 -111 103 -211 259 -222 147 -11 289 51 341 150
14 26 17 61 18 182 1 139 2 150 19 147 39 -7 72 20 125 103 30 47 61 93 70
102 9 10 35 43 58 74 23 30 84 104 134 165 92 110 126 149 319 366 117 131
129 161 89 211 -18 23 -18 28 -5 33 8 3 18 22 22 41 12 65 -1 77 -194 169 -97
46 -185 89 -194 94 -10 6 -27 10 -39 10 -20 0 -21 4 -14 43 18 112 21 158 19
299 -1 84 -5 164 -8 177 -29 127 -86 230 -180 325 -92 93 -99 98 -181 148
-216 129 -500 186 -680 135 -5 -2 -32 -13 -59 -25 -27 -12 -52 -22 -56 -22
-21 0 -77 -95 -79 -135 -1 -3 -4 -24 -8 -48 -4 -23 -6 -45 -5 -49 3 -11 -16
-10 -22 1 -10 15 -47 20 -281 36 -38 2 -120 10 -181 16 -106 12 -112 12 -140
-8 -18 -13 -52 -66 -93 -144 -62 -121 -91 -170 -91 -157 0 4 4 17 9 30 10 23
22 59 23 68 1 3 7 18 14 35 10 24 9 36 -2 65 -13 31 -13 41 0 76 11 34 12 45
1 72 -23 52 -64 63 -239 60 -147 -2 -153 -1 -246 31 -75 26 -106 32 -148 29
-67 -6 -81 -21 -117 -123 -15 -44 -49 -134 -76 -200 -44 -110 -47 -125 -43
-186 4 -58 1 -70 -21 -103 -14 -20 -25 -39 -25 -41 0 -3 -20 -37 -44 -77 -24
-40 -83 -138 -130 -218 -114 -193 -103 -178 -109 -160 -18 53 -109 446 -112
482 -2 25 -5 233 -7 464 -3 421 -9 521 -31 520 -7 0 -26 -3 -44 -6z m2676
-1348 c14 -55 9 -90 -19 -163 -40 -101 -125 -200 -201 -234 -22 -10 -41 -16
-44 -13 -4 4 45 136 75 203 5 11 25 55 44 98 33 74 110 172 127 162 4 -3 12
-27 18 -53z m-4739 -296 c0 -10 -42 -96 -48 -100 -5 -3 -9 14 -11 38 -1 36 2
44 21 54 24 11 38 14 38 8z m179 -873 c-23 -32 -63 -73 -69 -73 -3 0 -6 8 -7
18 -1 11 15 28 40 45 50 32 54 33 36 10z"/>
</g>
</svg>
